<svg xmlns="http://www.w3.org/2000/svg" width="1500" height="500" viewBox="0 0 1500 500">
  <defs>
    <linearGradient id="sunsetGradient" x1="0" y1="0" x2="1" y2="0">
      <stop offset="0%" stop-color="#ff7e5f"/>
      <stop offset="50%" stop-color="#f92772"/>
      <stop offset="100%" stop-color="#7b2ff7"/>
    </linearGradient>
  </defs>
  <rect width="1500" height="500" fill="url(#sunsetGradient)"/>
  <!-- Decorative hearts -->
  <g fill="white" opacity="0.8">
    <path d="M300 180 l-70 -70 c-23 -23 -23 -60 0 -83 23 -23 60 -23 83 0 23 -23 60 -23 83 0 23 23 23 60 0 83l-70 70 z"/>
    <path d="M700 120 l-80 -80 c-26 -26 -26 -67 0 -93 26 -26 67 -26 93 0 26 -26 67 -26 93 0 26 26 26 67 0 93l-80 80 z"/>
    <path d="M1100 200 l-60 -60 c-20 -20 -20 -52 0 -72 20 -20 52 -20 72 0 20 -20 52 -20 72 0 20 20 20 52 0 72l-60 60 z"/>
  </g>
  <!-- Main Text -->
  <text x="750" y="300" font-size="100" font-family="Arial, Helvetica, sans-serif" fill="white" text-anchor="middle">LoveLens AI</text>
  <text x="750" y="370" font-size="36" font-family="Arial, Helvetica, sans-serif" fill="white" text-anchor="middle">Your AI Companion · Powered by Web3</text>
</svg>
